{
	"asset":{
		"generator":"Khronos glTF Blender I/O v4.0.44",
		"version":"2.0"
	},
	"scene":0,
	"scenes":[
		{
			"name":"Scene",
			"nodes":[
				0,
				1
			]
		}
	],
	"nodes":[
		{
			"mesh":0,
			"name":"Ship_Hull",
			"translation":[
				0,
				4.0203776359558105,
				0.22298094630241394
			]
		},
		{
			"mesh":1,
			"name":"Ship_Cabin",
			"translation":[
				0,
				12.667105674743652,
				0.7912290096282959
			]
		}
	],
	"meshes":[
		{
			"name":"Cube.001",
			"primitives":[
				{
					"attributes":{
						"POSITION":0,
						"NORMAL":1,
						"TEXCOORD_0":2
					},
					"indices":3
				}
			]
		},
		{
			"name":"Cube.002",
			"primitives":[
				{
					"attributes":{
						"POSITION":4,
						"NORMAL":5,
						"TEXCOORD_0":6
					},
					"indices":7
				}
			]
		}
	],
	"accessors":[
		{
			"bufferView":0,
			"componentType":5126,
			"count":1336,
			"max":[
				9.012009620666504,
				9.229077339172363,
				11.586644172668457
			],
			"min":[
				-9.012009620666504,
				-4.187719821929932,
				-18.447185516357422
			],
			"type":"VEC3"
		},
		{
			"bufferView":1,
			"componentType":5126,
			"count":1336,
			"type":"VEC3"
		},
		{
			"bufferView":2,
			"componentType":5126,
			"count":1336,
			"type":"VEC2"
		},
		{
			"bufferView":3,
			"componentType":5123,
			"count":2004,
			"type":"SCALAR"
		},
		{
			"bufferView":4,
			"componentType":5126,
			"count":112,
			"max":[
				4.5854082107543945,
				7.385619163513184,
				3.227274179458618
			],
			"min":[
				-4.584923267364502,
				-6.928147792816162,
				-6.649221420288086
			],
			"type":"VEC3"
		},
		{
			"bufferView":5,
			"componentType":5126,
			"count":112,
			"type":"VEC3"
		},
		{
			"bufferView":6,
			"componentType":5126,
			"count":112,
			"type":"VEC2"
		},
		{
			"bufferView":7,
			"componentType":5123,
			"count":180,
			"type":"SCALAR"
		}
	],
	"bufferViews":[
		{
			"buffer":0,
			"byteLength":16032,
			"byteOffset":0,
			"target":34962
		},
		{
			"buffer":0,
			"byteLength":16032,
			"byteOffset":16032,
			"target":34962
		},
		{
			"buffer":0,
			"byteLength":10688,
			"byteOffset":32064,
			"target":34962
		},
		{
			"buffer":0,
			"byteLength":4008,
			"byteOffset":42752,
			"target":34963
		},
		{
			"buffer":0,
			"byteLength":1344,
			"byteOffset":46760,
			"target":34962
		},
		{
			"buffer":0,
			"byteLength":1344,
			"byteOffset":48104,
			"target":34962
		},
		{
			"buffer":0,
			"byteLength":896,
			"byteOffset":49448,
			"target":34962
		},
		{
			"buffer":0,
			"byteLength":360,
			"byteOffset":50344,
			"target":34963
		}
	],
	"buffers":[
		{
			"byteLength":50704,
			"uri":"Fishing%20Boat.bin"
		}
	]
}
